<?xml version="1.0" encoding="UTF-8" standalone="no"?>
<!-- Created with Inkscape (http://www.inkscape.org/) -->

<svg
   xmlns:dc="http://purl.org/dc/elements/1.1/"
   xmlns:cc="http://creativecommons.org/ns#"
   xmlns:rdf="http://www.w3.org/1999/02/22-rdf-syntax-ns#"
   xmlns:svg="http://www.w3.org/2000/svg"
   xmlns="http://www.w3.org/2000/svg"
   version="1.1"
   width="149.62437"
   height="92.827499"
   id="svg2985"
   xml:space="preserve"><metadata
     id="metadata2991"><rdf:RDF><cc:Work
         rdf:about=""><dc:format>image/svg+xml</dc:format><dc:type
           rdf:resource="http://purl.org/dc/dcmitype/StillImage" /><dc:title></dc:title></cc:Work></rdf:RDF></metadata><defs
     id="defs2989"><clipPath
       id="clipPath3001"><path
         d="M 0,8356.66 0,0 l 4518.7,0 0,8356.66 -4518.7,0 z"
         id="path3003" /></clipPath></defs><g
     transform="matrix(1.25,0,0,-1.25,-71.388125,593.675)"
     id="g2993"><g
       id="g3763"><path
         d="m 107.979,438.637 -27.1091,0 0,11.032 21.5941,0 0,10.688 11.032,0 0,-16.204 c 0,-3.047 -2.469,-5.516 -5.517,-5.516"
         id="path3065"
         style="fill:#ffffff;fill-opacity:1;fill-rule:nonzero;stroke:none" /><path
         d="m 122.466,400.678 -10.537,0 0,25.76 c 0.127,2.954 2.557,5.284 5.513,5.284 l 59.368,0 0,-11.033 -54.08,0 -0.264,-20.011"
         id="path3067"
         style="fill:#ffffff;fill-opacity:1;fill-rule:nonzero;stroke:none" /><path
         d="m 104.061,409.795 -11.109,0 -0.109,10.894 -35.7325,0 0,11.033 41.434,0 c 1.4935,0 2.9235,-0.607 3.9645,-1.681 1.038,-1.074 1.597,-2.523 1.549,-4.018 l 0.003,-16.228"
         id="path3069"
         style="fill:#ffffff;fill-opacity:1;fill-rule:nonzero;stroke:none" /><path
         d="m 146.076,438.57 -20.455,0 c -3.046,0 -5.517,2.471 -5.517,5.518 l 0,30.852 11.033,0 0,-25.336 14.939,0 0,-11.034"
         id="path3071"
         style="fill:#ffffff;fill-opacity:1;fill-rule:nonzero;stroke:none" /></g></g></svg>